<?xml version="1.0" encoding="UTF-8"?>
<svg id="Layer_1" data-name="Layer 1" xmlns="http://www.w3.org/2000/svg" viewBox="0 0 1000 300.13">
  <defs>
    <style>
      .cls-1 {
        fill: #000;
      }

      .cls-1, .cls-2, .cls-3 {
        stroke-width: 0px;
      }

      .cls-2 {
        fill: #111023;
      }

      .cls-3 {
        fill: #746f8f;
      }
    </style>
  </defs>
  <g>
    <path class="cls-1" d="M64.69,86.34h38.87l43.6,118.29h-35.66l-6.25-19.94h-42.25l-6.25,19.94H21.09l43.6-118.29ZM96.29,155.8l-12.17-38.7-12.17,38.7h24.33Z"/>
    <path class="cls-1" d="M187.88,115.41v12.34c4.39-8.62,12.51-14.36,26.87-14.36,24.33,0,40.56,20.62,40.56,46.64s-16.22,46.64-40.56,46.64c-13.18,0-21.46-5.41-25.18-14.36v43.43h-33.46v-120.32h31.77ZM205.79,179.29c10.31,0,16.05-9.63,16.05-19.26s-5.75-19.26-16.05-19.26-16.22,7.77-16.22,19.26,6.08,19.26,16.22,19.26Z"/>
    <path class="cls-1" d="M266.63,81.27h33.46v46.3c3.21-8.96,12.17-14.2,22.98-14.2,21.8,0,32.11,14.53,32.11,36.5v54.75h-33.46v-51.71c0-6.42-3.55-11.66-10.65-11.66s-10.98,4.39-10.98,12.17v51.2h-33.46v-123.36Z"/>
  </g>
  <g>
    <path class="cls-1" d="M427.64,86.34h3.04l49.01,118.29h-3.21l-14.7-36h-65.23l-14.7,36h-3.21l49.01-118.29ZM460.59,165.94l-31.43-76.55-31.43,76.55h62.86Z"/>
    <path class="cls-1" d="M505.04,86.34h44.95c23.32,0,37.85,14.53,37.85,31.77s-14.7,32.28-37.85,32.28h-41.74v54.25h-3.21v-118.29ZM549.65,147.69c22.31,0,34.98-14.19,34.98-29.57s-12.67-29.07-34.98-29.07h-41.4v58.64h41.4Z"/>
    <path class="cls-1" d="M614.04,86.34h3.21v118.29h-3.21v-118.29Z"/>
  </g>
  <g>
    <path class="cls-3" d="M980.27,149.14c0,78.13-59.3,142.4-135.35,150.25-1.17.12-2.34.23-3.52.32-2.52.21-5.06.35-7.61.42,2.73-18.51,6.91-30.37,11.6-30.37h-32.35c4.69,0,8.87,11.86,11.59,30.37-81.31-2.42-146.48-69.09-146.48-150.99,0-73.86,53-135.34,123.05-148.47-30.67,32.16-50.37,75.08-52.69,122.95-2.3,47.35,12.79,91.52,39.65,126.31-20.55-29.74-31.85-66.22-29.96-105.11,3.11-64.17,41.3-118.32,95.13-144.82,71.96,11.54,126.94,73.92,126.94,149.14Z"/>
    <g>
      <path class="cls-2" d="M789.07,154.03c0,13.9-11.27,25.18-25.18,25.18s-25.18-11.27-25.18-25.18-23.97-16.24-10.06-16.24,60.42,2.33,60.42,16.24Z"/>
      <path class="cls-2" d="M869.35,154.03c0,13.9,11.27,25.18,25.18,25.18s25.18-11.27,25.18-25.18,23.97-16.24,10.06-16.24-60.42,2.33-60.42,16.24Z"/>
    </g>
  </g>
</svg>