<?xml version="1.0" encoding="UTF-8"?>
<svg id="Layer_2" data-name="Layer 2" xmlns="http://www.w3.org/2000/svg" viewBox="0 0 302.12 300.13">
  <defs>
    <style>
      .cls-1 {
        fill: #746f8f;
      }

      .cls-1, .cls-2 {
        stroke-width: 0px;
      }

      .cls-2 {
        fill: #fff;
      }
    </style>
  </defs>
  <g id="Layer_1-2" data-name="Layer 1">
    <g>
      <path class="cls-1" d="M302.12,149.14c0,78.13-59.3,142.4-135.35,150.25-1.17.12-2.34.23-3.52.32-2.52.21-5.06.35-7.61.42,2.73-18.51,6.91-30.37,11.6-30.37h-32.35c4.69,0,8.87,11.86,11.59,30.37C65.17,297.71,0,231.04,0,149.14,0,75.28,53,13.8,123.05.67c-30.67,32.16-50.37,75.08-52.69,122.95-2.3,47.35,12.79,91.52,39.65,126.31-20.55-29.74-31.85-66.22-29.96-105.11C83.16,80.65,121.35,26.5,175.18,0c71.96,11.54,126.94,73.92,126.94,149.14Z"/>
      <g>
        <path class="cls-2" d="M110.92,154.03c0,13.9-11.27,25.18-25.18,25.18s-25.18-11.27-25.18-25.18-23.97-16.24-10.06-16.24,60.42,2.33,60.42,16.24Z"/>
        <path class="cls-2" d="M191.2,154.03c0,13.9,11.27,25.18,25.18,25.18s25.18-11.27,25.18-25.18,23.97-16.24,10.06-16.24-60.42,2.33-60.42,16.24Z"/>
      </g>
    </g>
  </g>
</svg>